<svg width="25" height="23" viewBox="0 0 25 23" fill="none" xmlns="http://www.w3.org/2000/svg">
<g clip-path="url(#clip0_4603_34298)">
<path d="M23.4546 13.7834C23.4546 14.2683 23.3658 14.7321 23.2033 15.1596C22.6474 16.62 21.2351 17.6574 19.5799 17.6574C17.886 17.6574 16.4466 16.5707 15.9196 15.0563C12.7904 15.2812 11.001 13.8827 10.257 11.2171C8.37756 10.706 6.99609 8.98776 6.99609 6.94639C6.99609 5.62615 7.57429 4.44065 8.49129 3.63027C9.27157 2.93954 10.2978 2.52051 11.422 2.52051C12.71 2.52051 13.8698 3.07038 14.6776 3.94934C15.221 3.59406 15.8703 3.38812 16.5677 3.38812C17.0544 3.38812 17.5183 3.48882 17.9386 3.67038C19.1549 4.19534 20.0102 5.39781 20.0292 6.80237C20.0299 6.8188 20.0299 6.83459 20.0299 6.85107L20.0292 6.90963V6.91027C20.2061 6.87144 20.3896 6.85107 20.5785 6.85107C21.4218 6.85107 22.1711 7.255 22.6434 7.87992H22.6441C22.9717 8.31345 23.1658 8.85351 23.1658 9.439C23.167 10.0462 22.953 10.6342 22.5619 11.0987C22.5325 11.1345 22.502 11.1694 22.4704 11.2033C23.0829 11.8881 23.4545 12.7926 23.4545 13.7834" fill="#FF5CAA"/>
<path d="M16.5221 6.63381C15.8211 7.39564 15.393 8.41255 15.393 9.52952C15.393 11.8918 17.3081 13.8069 19.6705 13.8069C19.9753 13.8071 20.2792 13.7748 20.5772 13.7106M11.2324 5.25308C11.3394 6.79796 12.6266 8.01799 14.1986 8.01799M18.9273 7.44429C19.2452 7.18013 19.6223 6.99688 20.0265 6.9102M14.6749 3.94922C14.177 4.27347 13.7677 4.72284 13.4922 5.25308" stroke="#103849" stroke-width="0.52629" stroke-miterlimit="10" stroke-linecap="round" stroke-linejoin="round"/>
<path d="M23.4526 13.7834C23.4526 15.9233 21.7179 17.6574 19.578 17.6574C17.8841 17.6574 16.4447 16.5707 15.9177 15.0563C12.7884 15.2812 10.9991 13.8827 10.255 11.2171C8.37561 10.706 6.99414 8.98776 6.99414 6.94639C6.99414 4.50193 8.97551 2.52051 11.4201 2.52051C12.708 2.52051 13.8678 3.07038 14.6757 3.94934C15.219 3.59406 15.8683 3.38812 16.5657 3.38812C18.478 3.38812 20.0279 4.93872 20.0279 6.85107L20.0273 6.90963V6.91027C20.2041 6.87144 20.3877 6.85107 20.5765 6.85107C22.0053 6.85107 23.1638 8.00948 23.1638 9.439C23.1638 10.1212 22.9 10.7409 22.4684 11.2033C23.081 11.8881 23.4526 12.7926 23.4526 13.7834L23.4526 13.7834Z" stroke="#103849" stroke-width="0.460473" stroke-miterlimit="10" stroke-linejoin="round"/>
<path d="M22.4684 11.2035C22.4684 11.2035 22.168 10.8918 21.7572 10.5674M10.9147 18.2293C10.7451 17.875 10.6366 17.4946 10.5938 17.1042" stroke="#103849" stroke-width="0.52629" stroke-miterlimit="10" stroke-linecap="round" stroke-linejoin="round"/>
<path d="M18.5146 15.5346C18.6516 15.9146 18.7214 16.3155 18.7211 16.7194C18.7211 18.7969 16.8976 20.4803 14.6477 20.4803C12.9795 20.4803 11.546 19.5546 10.9171 18.2292C10.3988 18.5811 9.77707 18.7863 9.10938 18.7863C7.61221 18.7863 6.34911 17.7561 5.95312 16.347C5.67039 16.4175 5.3801 16.4531 5.08871 16.453C3.13295 16.453 1.54688 14.8675 1.54688 12.9111C1.54688 11.4086 2.48297 10.1245 3.8039 9.61071C3.75195 9.39564 3.72432 9.17264 3.72432 8.94371C3.72432 7.16951 5.3729 5.73145 7.40692 5.73145C8.5746 5.73145 9.61653 6.20633 10.2908 6.94576C10.8316 6.65565 11.4553 6.48928 12.1197 6.48928C14.1807 6.48928 15.8515 8.0872 15.8515 10.0581C15.8518 10.1045 15.8507 10.151 15.8482 10.1974C17.5488 10.5093 18.8414 12.0711 18.8414 13.9511C18.8414 14.5162 18.725 15.0524 18.5146 15.5345" fill="#FF5CAA"/>
<path d="M17.1898 13.784C17.7969 14.2326 18.2615 14.8392 18.5115 15.5351M5.94995 16.3475C5.86573 16.0489 5.82098 15.7338 5.82098 15.4075C5.82098 14.076 6.57028 12.9242 7.65839 12.3735M4.72311 9.38887C4.40078 9.42178 4.09158 9.49747 3.80078 9.61124M10.2885 6.94693L10.2877 6.94629M10.2877 6.94629C9.82532 7.19629 9.42405 7.53711 9.11026 7.94366" stroke="#103849" stroke-width="0.52629" stroke-miterlimit="10" stroke-linecap="round" stroke-linejoin="round"/>
<path d="M18.5127 15.5356C18.6496 15.9156 18.7195 16.3165 18.7191 16.7204C18.7191 18.7979 16.8957 20.4812 14.6458 20.4812C12.9776 20.4812 11.544 19.5556 10.9152 18.2301C10.3969 18.5821 9.77512 18.7873 9.10743 18.7873C7.61026 18.7873 6.34715 17.7571 5.95117 16.348C5.66844 16.4185 5.37814 16.4541 5.08676 16.454C3.131 16.454 1.54492 14.8685 1.54492 12.9121C1.54492 11.4096 2.48102 10.1255 3.80195 9.61169C3.74999 9.39662 3.72236 9.17361 3.72236 8.94468C3.72236 7.17048 5.37095 5.73242 7.40496 5.73242C8.57265 5.73242 9.61458 6.2073 10.2889 6.94673C10.8297 6.65662 11.4533 6.49026 12.1177 6.49026C14.1788 6.49026 15.8496 8.08817 15.8496 10.059C15.8498 10.1055 15.8487 10.152 15.8463 10.1984C17.5469 10.5102 18.8395 12.072 18.8395 13.9521C18.8395 14.5172 18.7231 15.0533 18.5126 15.5355L18.5127 15.5356Z" stroke="#103849" stroke-width="0.460473" stroke-miterlimit="10" stroke-linejoin="round"/>
<path d="M12.6629 11.259C13.3181 10.5696 14.2226 10.1426 15.2212 10.1426C15.4344 10.1426 15.6429 10.1617 15.8461 10.1991M15.6118 14.6802C15.0956 15.3257 14.3014 15.7392 13.4106 15.7392C11.8549 15.7392 10.5938 14.4779 10.5938 12.9223C10.5928 12.2727 10.8172 11.6429 11.2288 11.1404" stroke="#103849" stroke-width="0.52629" stroke-miterlimit="10" stroke-linecap="round" stroke-linejoin="round"/>
<path d="M14.657 17.1334C14.657 16.5801 14.5175 16.0599 14.2714 15.6052M8.76993 15.3342C9.23435 14.6461 9.95741 14.1481 10.8001 13.9791M3.74805 12.9146C4.10486 12.7732 4.48521 12.7007 4.86901 12.7008C5.48439 12.7 6.0854 12.8868 6.59185 13.2364M9.53936 10.3221C9.34768 10.3785 9.14481 10.4088 8.93482 10.4088C8.37751 10.4095 7.84207 10.1919 7.44318 9.80273M18.7843 10.1847C19.0792 9.96471 19.4373 9.84612 19.8052 9.8467C19.9074 9.84664 20.0095 9.8557 20.1101 9.87378" stroke="#103849" stroke-width="0.52629" stroke-miterlimit="10" stroke-linecap="round" stroke-linejoin="round"/>
<path d="M22.772 11.2055C23.1746 10.7059 23.3942 10.0865 23.3942 9.43977C23.3942 7.88582 22.1302 6.62153 20.5767 6.62153C20.4681 6.62153 20.3597 6.62784 20.2523 6.64027C20.1423 4.70188 18.5308 3.15868 16.5657 3.15868C15.9105 3.15868 15.2741 3.33023 14.7133 3.65645C13.8396 2.78334 12.6553 2.29231 11.4201 2.29102C9.34982 2.29102 7.5916 3.64954 6.98805 5.52163C5.02572 5.70522 3.49185 7.17007 3.49185 8.94442C3.49185 9.121 3.50729 9.29788 3.53773 9.47233C2.18063 10.0806 1.31445 11.4101 1.31445 12.9118C1.31445 14.9917 3.00661 16.6839 5.08651 16.6839C5.32402 16.6839 5.56102 16.6617 5.79441 16.6176C6.28809 18.0409 7.62091 19.0172 9.10722 19.0172C9.71031 19.0177 10.3028 18.8591 10.8251 18.5576C11.5605 19.8739 13.0314 20.7112 14.6455 20.7112C16.6108 20.7112 18.2714 19.4827 18.7845 17.8107C19.0426 17.8616 19.308 17.8883 19.578 17.8883C21.8415 17.8883 23.683 16.0471 23.683 13.7841C23.683 12.8413 23.3609 11.9334 22.772 11.2054V11.2055Z" stroke="#103849" stroke-width="0.920996" stroke-miterlimit="10" stroke-linejoin="round"/>
<path d="M11.4213 0.974609C10.2052 0.974609 9.0354 1.33675 8.03842 2.02181C7.17757 2.61333 6.49517 3.41118 6.04442 4.34801C3.8503 4.87973 2.28159 6.64539 2.18243 8.73328C0.824392 9.67619 0 11.2331 0 12.9111C0 15.6871 2.23492 17.9509 4.99978 17.9981C5.87282 19.4326 7.42915 20.3322 9.10847 20.3322C9.53746 20.3322 9.95906 20.2754 10.368 20.1627C11.4263 21.3397 12.9813 22.0262 14.6468 22.0262C15.775 22.0262 16.8678 21.7063 17.8072 21.1012C18.5705 20.6096 19.1855 19.9607 19.6111 19.2032C22.5856 19.1862 24.9999 16.7614 24.9999 13.7834C24.9999 12.8633 24.7697 11.9706 24.3301 11.1723C24.5813 10.629 24.7114 10.0376 24.7112 9.43902C24.7112 8.35491 24.2933 7.32976 23.5346 6.55254C22.9362 5.93956 22.1788 5.53464 21.3545 5.37794C21.0759 4.47353 20.5424 3.65866 19.8134 3.03759C18.9075 2.26644 17.7568 1.84271 16.5671 1.84217C16.0126 1.84217 15.456 1.93626 14.9317 2.11654C13.913 1.37696 12.6853 0.974609 11.4213 0.974609ZM11.4213 1.82979C12.6544 1.82979 13.8636 2.2877 14.7899 3.09615C15.3455 2.83347 15.9524 2.6973 16.567 2.69745C18.614 2.69745 20.3328 4.18608 20.6629 6.16143C22.4312 6.20678 23.8559 7.65969 23.8559 9.43907C23.8553 10.0625 23.6774 10.673 23.343 11.1992C23.8621 11.9555 24.1446 12.8604 24.1446 13.7835C24.1446 16.3005 22.0965 18.3483 19.5792 18.3483C19.4164 18.3483 19.253 18.3394 19.0904 18.3218C18.3878 20.0177 16.6173 21.171 14.6467 21.171C13.0216 21.171 11.5323 20.4088 10.6585 19.1557C10.1692 19.3675 9.64167 19.4769 9.10847 19.4771C7.55491 19.4771 6.14976 18.5456 5.50274 17.1235C5.36489 17.137 5.2262 17.1437 5.08775 17.1437C2.75396 17.1437 0.855228 15.245 0.855228 12.9111C0.855228 11.3617 1.70325 9.94217 3.04244 9.20501C3.03594 9.11806 3.03268 9.0309 3.03267 8.94371C3.03267 7.02944 4.56807 5.42116 6.65044 5.09908C7.41119 3.13163 9.29245 1.82979 11.4214 1.82979" fill="#F0F0F0"/>
</g>
<defs>
<clipPath id="clip0_4603_34298">
<rect width="25" height="21.0516" fill="white" transform="translate(0 0.974609)"/>
</clipPath>
</defs>
</svg>
